<?xml version="1.0" standalone="no"?>
<!DOCTYPE svg PUBLIC "-//W3C//DTD SVG 20010904//EN"
 "http://www.w3.org/TR/2001/REC-SVG-20010904/DTD/svg10.dtd">
<svg version="1.0" xmlns="http://www.w3.org/2000/svg"
 width="225.000000pt" height="225.000000pt" viewBox="0 0 225.000000 225.000000"
 preserveAspectRatio="xMidYMid meet">
<metadata>
Created by potrace 1.14, written by Peter Selinger 2001-2017
</metadata>
<g transform="translate(0.000000,225.000000) scale(0.100000,-0.100000)"
fill="#000000" stroke="none">
<path d="M0 1125 l0 -1125 1125 0 1125 0 0 1125 0 1125 -1125 0 -1125 0 0
-1125z m1197 666 c-22 -45 -30 -88 -17 -96 6 -3 9 -1 8 7 -2 8 5 12 20 11 12
-2 22 1 22 6 0 5 51 -14 113 -41 106 -48 117 -51 199 -52 64 -1 84 -4 77 -13
-7 -7 -6 -14 1 -18 6 -4 9 -13 6 -21 -3 -8 -1 -14 4 -14 17 0 55 49 67 88 l11
37 1 -50 c1 -59 -23 -117 -68 -162 -39 -41 -52 -41 -72 0 -14 28 -22 33 -68
39 -53 8 -126 41 -196 88 -22 14 -46 30 -52 34 -10 6 -13 -91 -13 -468 0 -520
-4 -487 56 -523 16 -9 11 -10 -26 -6 -65 8 -108 28 -122 57 -6 15 -15 26 -20
26 -5 0 -6 5 -3 11 8 11 11 71 14 209 1 80 15 132 28 103 9 -24 33 -14 34 15
0 23 2 24 8 8 7 -18 8 -18 14 -2 8 22 7 110 -2 151 l-7 30 -8 -30 -8 -30 -15
25 c-8 14 -12 18 -10 10 2 -8 0 -26 -5 -40 -10 -24 -11 -24 -18 -5 -5 11 -9
109 -9 218 -1 162 -4 202 -17 222 -18 28 -61 45 -118 46 -39 1 -40 1 -16 12
40 19 71 43 63 50 -15 15 -154 7 -203 -12 -27 -11 -51 -17 -51 -15 -2 4 -6 20
-8 29 0 3 -21 -6 -46 -21 -25 -14 -48 -24 -51 -22 -3 3 31 24 75 47 90 47 174
63 254 49 77 -13 86 -17 65 -29 -10 -6 -18 -14 -18 -20 0 -6 5 -6 13 0 70 58
123 98 126 95 1 -1 -4 -16 -12 -33z m40 -33 c-2 -13 -4 -3 -4 22 0 25 2 35 4
23 2 -13 2 -33 0 -45z m-434 -170 c-11 -13 -25 -32 -31 -43 -6 -11 -12 -15
-12 -8 0 12 48 73 58 73 3 0 -4 -10 -15 -22z m-136 -40 c-3 -8 -6 -5 -6 6 -1
11 2 17 5 13 3 -3 4 -12 1 -19z m90 -75 c-3 -10 -5 -4 -5 12 0 17 2 24 5 18 2
-7 2 -21 0 -30z m-46 -10 c13 -16 12 -17 -3 -4 -10 7 -18 15 -18 17 0 8 8 3
21 -13z m39 -38 c7 -8 16 -13 20 -10 4 3 13 -2 20 -10 19 -23 -2 -18 -40 10
-19 14 -29 25 -23 25 6 0 16 -7 23 -15z m648 -20 c-3 -3 -9 2 -12 12 -6 14 -5
15 5 6 7 -7 10 -15 7 -18z m-351 -107 c-3 -7 -5 -2 -5 12 0 14 2 19 5 13 2 -7
2 -19 0 -25z m19 -581 c6 -11 23 -20 38 -20 25 -2 26 -4 20 -42 -6 -42 -61
-193 -75 -209 -5 -6 -8 165 -7 400 2 389 3 396 8 149 3 -161 9 -267 16 -278z"/>
</g>
</svg>
